<?xml version="1.0" encoding="UTF-8"?>
<svg version="1.1" xmlns="http://www.w3.org/2000/svg" width="1280" height="658">
<path d="M0 0 C4.14749311 0.34840851 7.14726992 1.84389552 10.70703125 3.84765625 C11.36566162 4.21044678 12.02429199 4.5732373 12.70288086 4.94702148 C21.47622886 9.88573242 30.23312116 15.8186356 34.76953125 25.09765625 C39.76001865 50.54914201 29.8166219 81.57305952 24.08618164 106.38720703 C13.22741715 153.51333092 10.85191759 201.82501732 13.20703125 250.03515625 C13.25087952 250.94526459 13.29472778 251.85537292 13.33990479 252.7930603 C14.43880344 281.05011656 14.43880344 281.05011656 21.39453125 308.28515625 C23.04453125 307.62515625 24.69453125 306.96515625 26.39453125 306.28515625 C26.39453125 305.62515625 26.39453125 304.96515625 26.39453125 304.28515625 C26.97203125 303.76953125 27.54953125 303.25390625 28.14453125 302.72265625 C37.27559322 292.83067245 37.74379451 276.27411656 38.78778076 263.581604 C38.96177675 261.47777733 39.14841331 259.37539089 39.33837891 257.27294922 C39.78647062 252.30135668 40.22393107 247.32895327 40.63916016 242.35449219 C42.17284437 224.19708133 45.75723243 203.5815226 59.39453125 190.28515625 C64.16957729 186.72727881 67.82086619 185.56897251 73.7890625 185.83984375 C87.0265233 188.10231831 98.28571128 199.32289171 106.39453125 209.28515625 C109.80075821 205.98051852 112.83863595 202.57740568 115.76953125 198.84765625 C121.37368312 191.94452878 128.97405987 183.46271517 138.39453125 182.28515625 C150.64850521 181.52394715 162.55705474 190.48662836 171.39453125 198.28515625 C183.73434516 210.76869511 186.67076692 225.97951863 186.703125 242.9140625 C186.72829767 245.35612205 186.7536955 247.79817928 186.77929688 250.24023438 C186.80789193 254.0355563 186.83194758 257.83083795 186.85083008 261.6262207 C186.35298211 286.64076156 186.35298211 286.64076156 193.39453125 310.28515625 C196.3994118 311.07591429 198.3684557 311.29544902 201.39453125 311.28515625 C202.173125 311.34445312 202.95171875 311.40375 203.75390625 311.46484375 C213.81764315 312.00969575 222.29316331 307.94914988 230.39453125 302.28515625 C229.36710029 299.69053798 228.31956843 297.11197483 227.2109375 294.55078125 C212.76205221 259.80143719 220.6084283 214.10153956 232.83203125 179.72265625 C237.04632664 169.92509052 242.85591339 161.9402437 252.5859375 157.22265625 C259.1092057 154.68141785 264.60295186 154.6705336 271.0546875 157.41796875 C281.43393309 162.76087155 292.17348047 170.11853326 296.77270508 181.23950195 C297.93581583 185.06584862 297.83435531 188.87848668 297.76953125 192.84765625 C297.75937988 193.76530762 297.74922852 194.68295898 297.73876953 195.62841797 C296.83026749 237.0462514 284.74122526 281.82650394 258.39453125 314.28515625 C265.41128654 318.10865763 272.43939385 321.12054593 279.95703125 323.78515625 C296.67129663 329.74808336 296.67129663 329.74808336 302.89453125 335.66015625 C309.03542582 339.65173772 319.7595768 337.15722086 326.875 336.62890625 C327.81386551 336.56231812 328.75273102 336.49572998 329.720047 336.42712402 C332.67431549 336.21676831 335.62816382 336.00106317 338.58203125 335.78515625 C340.60349011 335.64026856 342.62497433 335.49573424 344.64648438 335.3515625 C349.56280212 335.00017088 354.47875105 334.64398625 359.39453125 334.28515625 C358.63454834 333.6082373 357.87456543 332.93131836 357.09155273 332.23388672 C356.08691659 331.33188416 355.08244958 330.4296932 354.078125 329.52734375 C353.5780896 329.08285889 353.0780542 328.63837402 352.56286621 328.18041992 C343.24831009 319.78691424 339.46792463 308.63059791 338.39453125 296.28515625 C338.23525405 292.38673085 338.20748387 288.49121704 338.19140625 284.58984375 C338.18452789 283.46086166 338.17764954 282.33187958 338.17056274 281.16868591 C338.15334051 277.4991433 338.1470932 273.82973728 338.14453125 270.16015625 C338.1428595 268.90584808 338.14118774 267.65153992 338.13946533 266.35922241 C338.13791996 246.97858124 338.91482737 227.85596922 340.80563354 208.57446289 C341.29119822 203.58539298 341.67737657 198.59566861 342.00390625 193.59375 C342.04895294 192.90376419 342.09399963 192.21377838 342.14041138 191.50288391 C342.34813441 188.27999672 342.54900189 185.05671583 342.74755859 181.83325195 C342.8192627 180.72941162 342.8909668 179.62557129 342.96484375 178.48828125 C343.02430176 177.52567383 343.08375977 176.56306641 343.14501953 175.57128906 C343.39453125 173.28515625 343.39453125 173.28515625 344.39453125 171.28515625 C342.08453125 171.61515625 339.77453125 171.94515625 337.39453125 172.28515625 C337.72453125 173.60515625 338.05453125 174.92515625 338.39453125 176.28515625 C327.25498064 175.79006511 315.87518484 167.50842764 307.76953125 160.22265625 C305.39453125 157.28515625 305.39453125 157.28515625 305.51953125 154.41015625 C305.80828125 153.70890625 306.09703125 153.00765625 306.39453125 152.28515625 C312.21431195 150.65083427 317.61466932 149.8953092 323.64453125 149.66015625 C324.46993408 149.62220947 325.29533691 149.5842627 326.14575195 149.54516602 C332.56257401 149.26911309 338.97213679 149.16978389 345.39453125 149.28515625 C345.4925 148.27582031 345.59046875 147.26648438 345.69140625 146.2265625 C346.7328166 136.00410745 348.1788009 125.88897353 349.89746094 115.75805664 C352.22599491 101.81315743 353.61830334 87.92386044 354.28619385 73.81164551 C354.9469874 59.92641851 355.8697102 46.10587471 357.39453125 32.28515625 C363.34613173 30.71065877 367.09201021 32.46978745 372.39453125 35.28515625 C384.31265788 43.11583873 384.31265788 43.11583873 386.39453125 48.28515625 C386.65332031 50.45166016 386.65332031 50.45166016 386.66015625 52.76171875 C386.66273438 53.59703125 386.6653125 54.43234375 386.66796875 55.29296875 C386.66023438 56.15664062 386.6525 57.0203125 386.64453125 57.91015625 C386.65226562 58.7815625 386.66 59.65296875 386.66796875 60.55078125 C386.66410156 61.79988281 386.66410156 61.79988281 386.66015625 63.07421875 C386.65790039 63.83428223 386.65564453 64.5943457 386.65332031 65.37744141 C386.39453125 67.28515625 386.39453125 67.28515625 384.39453125 69.28515625 C383.93632409 72.25876927 383.59173559 75.17229701 383.31640625 78.1640625 C383.12633386 80.04016494 382.9358035 81.91622102 382.74487305 83.79223633 C382.64717621 84.78123932 382.54947937 85.77024231 382.44882202 86.78921509 C380.41973718 107.18364427 377.48337587 127.20513886 373.39453125 147.28515625 C374.10544922 147.25486328 374.81636719 147.22457031 375.54882812 147.19335938 C389.58330935 146.61194365 403.62135709 146.15435919 417.66821289 146.05297852 C419.05970659 146.04117661 420.45116664 146.02415825 421.8425293 146.00170898 C432.56283085 145.83769522 438.50314646 146.8967747 447.26953125 153.22265625 C448.21570312 153.89167969 449.161875 154.56070313 450.13671875 155.25 C452.43766578 157.32403703 453.19649563 158.22880647 453.39453125 161.28515625 C451.3836812 163.2960063 447.42839182 162.76141763 444.66186523 162.94946289 C443.85217285 163.00813034 443.04248047 163.06679779 442.20825195 163.12724304 C439.51933622 163.32097377 436.8300055 163.5081535 434.140625 163.6953125 C432.28114502 163.82800337 430.42169399 163.96110052 428.56227112 164.09458923 C423.65853647 164.44552703 418.75442627 164.79092104 413.85021973 165.13519287 C408.84977948 165.48719555 403.849711 165.84439717 398.84960938 166.20117188 C389.03160843 166.90094508 379.21320322 167.59486687 369.39453125 168.28515625 C369.39597342 169.1202719 369.39597342 169.1202719 369.39744473 169.97225857 C369.40131216 172.54783018 369.40366555 175.12340118 369.40600586 177.69897461 C369.40754417 178.57429588 369.40908249 179.44961716 369.41066742 180.35146332 C369.41614449 188.42477841 369.253564 196.48871845 369.0222168 204.55834961 C368.95690861 206.85196325 368.8971305 209.14567557 368.83789062 211.43945312 C368.62850342 219.18734531 368.31808249 226.9183949 367.87109375 234.65625 C367.30563406 244.69986963 367.19663364 254.72731795 367.20703125 264.78515625 C367.20694061 266.14681412 367.20694061 266.14681412 367.20684814 267.53598022 C367.22547631 287.30371349 368.1990477 306.74957735 371.39453125 326.28515625 C384.8065059 323.88677961 397.91811749 320.6672508 411.03564453 317.015625 C428.60684881 312.17921736 428.60684881 312.17921736 436.33203125 316.28515625 C436.93031738 316.6004126 437.52860352 316.91566895 438.14501953 317.24047852 C443.31623388 320.04856332 447.95546133 323.42152132 452.39453125 327.28515625 C452.17822266 329.64477539 452.17822266 329.64477539 451.39453125 332.28515625 C449.44287109 333.58374023 449.44287109 333.58374023 446.85546875 334.53125 C445.89253906 334.890979 444.92960937 335.25070801 443.9375 335.62133789 C442.89207031 335.98477295 441.84664062 336.34820801 440.76953125 336.72265625 C439.17431641 337.29971313 439.17431641 337.29971313 437.546875 337.88842773 C426.6837639 341.721385 415.59954196 344.64356865 404.39453125 347.28515625 C405.05453125 348.06890625 405.71453125 348.85265625 406.39453125 349.66015625 C408.39453125 352.28515625 408.39453125 352.28515625 408.39453125 354.28515625 C407.15815918 354.27991943 405.92178711 354.27468262 404.64794922 354.26928711 C399.89502743 354.25067223 395.1421085 354.23952661 390.38916016 354.23022461 C388.36311292 354.22530933 386.33706898 354.21857798 384.31103516 354.2097168 C372.31246121 354.15869735 360.34617487 354.31591967 348.35546875 354.765625 C331.35748214 355.39014458 314.36399616 355.57592981 297.35546875 355.63525391 C293.84544968 355.6487889 290.33598521 355.67708111 286.82617188 355.71728516 C282.49914791 355.76673474 278.17263875 355.79137766 273.84534454 355.79848099 C272.2235565 355.80513056 270.60177725 355.82018485 268.98015594 355.8443718 C257.50840677 356.00645075 249.66457891 354.3998747 240.39453125 347.28515625 C240.72453125 346.29515625 241.05453125 345.30515625 241.39453125 344.28515625 C257.37690058 342.44436845 273.38477799 340.86554535 289.39453125 339.28515625 C288.58588623 338.99020264 287.77724121 338.69524902 286.9440918 338.39135742 C279.41101629 335.5791483 272.29013997 332.39494648 265.20703125 328.59765625 C264.28083984 328.11232422 263.35464844 327.62699219 262.40039062 327.12695312 C255.67430124 323.56492624 255.67430124 323.56492624 253.39453125 321.28515625 C249.71930941 321.67981094 246.57486091 323.61351171 243.33203125 325.28515625 C240.3487585 326.81920009 237.57767497 328.22410834 234.39453125 329.28515625 C234.06453125 329.94515625 233.73453125 330.60515625 233.39453125 331.28515625 C210.51096927 331.89448186 192.50102607 325.12080856 175.53125 309.54296875 C159.1352618 292.21777464 159.6943952 268.21206317 159.26325989 245.91557312 C159.20301395 242.83105129 159.1339485 239.74673783 159.06570435 236.66238403 C159.02071568 234.40703356 158.99133203 232.15184768 158.96264648 229.89624023 C158.79377031 220.66492443 157.70808284 212.26775629 155.39453125 203.28515625 C151.41160524 204.76624431 148.69339322 206.6104033 145.39453125 209.28515625 C144.73453125 209.28515625 144.07453125 209.28515625 143.39453125 209.28515625 C143.13929688 209.8678125 142.8840625 210.45046875 142.62109375 211.05078125 C141.27487103 213.50313602 139.74860353 215.06396872 137.76953125 217.03515625 C125.50862864 230.65343646 120.26973338 250.45035335 118.39453125 268.28515625 C118.30550537 269.06818115 118.21647949 269.85120605 118.12475586 270.65795898 C117.06657548 281.19839171 117.35487916 291.75404765 117.49047852 302.33178711 C117.52068038 304.8566151 117.5384312 307.38129921 117.5546875 309.90625 C117.57487694 311.0578788 117.57487694 311.0578788 117.59547424 312.23277283 C117.6148605 316.37354418 117.25895484 319.56320582 115.39453125 323.28515625 C105.61917603 322.66119741 98.88461675 317.12381658 91.4609375 311.15234375 C86.50193842 304.27161535 87.04049573 294.05050385 86.80078125 285.83203125 C86.74525085 284.22385529 86.74525085 284.22385529 86.68859863 282.58319092 C86.23504225 268.71413822 86.04526174 254.83836008 85.84228516 240.96386719 C85.7901026 237.47194441 85.7331305 233.98012244 85.67578125 230.48828125 C85.65541809 228.93478973 85.65541809 228.93478973 85.63464355 227.34991455 C85.51113323 219.96593148 85.03086707 212.64206864 84.39453125 205.28515625 C75.45691036 212.30282445 70.90900227 219.74281263 67.64453125 230.53515625 C67.44577393 231.18919434 67.2470166 231.84323242 67.04223633 232.51708984 C63.3325536 245.7625494 62.76991132 259.72939823 61.86816406 273.39086914 C61.29744859 281.90343574 60.42349863 290.16364536 58.48046875 298.484375 C58.24174545 299.50722343 58.24174545 299.50722343 57.99819946 300.55073547 C56.87578508 305.04077527 55.30236618 309.08893964 53.39453125 313.28515625 C54.18214844 313.54167969 54.96976563 313.79820312 55.78125 314.0625 C64.83690403 317.24537485 71.7691177 321.49357178 79.39453125 327.28515625 C80.34328125 327.95417969 81.29203125 328.62320312 82.26953125 329.3125 C82.97078125 329.96347656 83.67203125 330.61445313 84.39453125 331.28515625 C84.39453125 332.60515625 84.39453125 333.92515625 84.39453125 335.28515625 C74.31730838 335.73303282 64.77089121 335.30372155 54.83203125 333.47265625 C53.92952637 333.30733398 53.02702148 333.14201172 52.09716797 332.97167969 C47.82499722 332.13381351 43.76407833 331.1226776 39.66015625 329.6640625 C35.91287275 328.35323669 32.70173831 328.01588143 28.70703125 328.03515625 C17.76650417 327.44377641 8.71249933 322.08032432 0.65234375 314.86328125 C-0.60546875 313.28515625 -0.60546875 313.28515625 -0.60546875 310.28515625 C0.71453125 309.95515625 2.03453125 309.62515625 3.39453125 309.28515625 C2.71390625 308.83140625 2.03328125 308.37765625 1.33203125 307.91015625 C-2.77755782 304.23775751 -5.57423579 299.8587294 -8.60546875 295.28515625 C-9.26546875 294.29515625 -9.92546875 293.30515625 -10.60546875 292.28515625 C-11.20875 293.105 -11.81203125 293.92484375 -12.43359375 294.76953125 C-13.24071158 295.85820182 -14.04801301 296.94673628 -14.85546875 298.03515625 C-15.25121094 298.57398438 -15.64695312 299.1128125 -16.0546875 299.66796875 C-18.37068434 302.78127597 -20.6875977 305.71643216 -23.60546875 308.28515625 C-24.26546875 308.28515625 -24.92546875 308.28515625 -25.60546875 308.28515625 C-25.60546875 308.94515625 -25.60546875 309.60515625 -25.60546875 310.28515625 C-34.4364314 318.0903 -45.53721567 321.0657522 -57.109375 320.66015625 C-78.3369485 318.38323216 -95.84020445 304.55223252 -111.60546875 291.28515625 C-112.18296875 292.00703125 -112.76046875 292.72890625 -113.35546875 293.47265625 C-118.48046875 299.87890625 -118.48046875 299.87890625 -123.60546875 306.28515625 C-124.27578125 307.166875 -124.94609375 308.04859375 -125.63671875 308.95703125 C-129.57309881 313.61195687 -134.78117776 315.86932425 -140.796875 316.5234375 C-155.03332093 316.96905937 -167.80526415 308.88577685 -178.60546875 300.28515625 C-179.49234375 299.66640625 -180.37921875 299.04765625 -181.29296875 298.41015625 C-184.44986075 295.50922847 -186.81388544 292.18852075 -188.60546875 288.28515625 C-188.60546875 286.96515625 -188.60546875 285.64515625 -188.60546875 284.28515625 C-187.28546875 284.28515625 -185.96546875 284.28515625 -184.60546875 284.28515625 C-186.25546875 281.97515625 -187.90546875 279.66515625 -189.60546875 277.28515625 C-192.76451002 280.34778154 -195.65851164 283.47730244 -198.44726562 286.89038086 C-207.04773186 297.40223518 -217.4056995 309.26913963 -231.60546875 311.28515625 C-233.4980206 311.42435384 -235.3955483 311.50475699 -237.29296875 311.53515625 C-238.24558594 311.5609375 -239.19820313 311.58671875 -240.1796875 311.61328125 C-248.41156015 310.82482366 -255.69697411 307.58999559 -262.91796875 303.72265625 C-263.7375708 303.28574463 -264.55717285 302.84883301 -265.40161133 302.39868164 C-283.28700623 292.61610104 -295.51684754 279.94080601 -302.55078125 260.69921875 C-306.01626299 246.7884822 -303.76583024 231.03303439 -300.60546875 217.28515625 C-300.42854492 216.51139648 -300.25162109 215.73763672 -300.06933594 214.94042969 C-293.57513425 187.22510607 -281.17728929 161.3865666 -256.60546875 145.28515625 C-247.55018396 140.17184867 -240.10421134 137.00759842 -229.60546875 138.28515625 C-210.67995367 143.64103468 -192.44458204 155.78813852 -182.7109375 173.07421875 C-181.60546875 175.28515625 -181.60546875 175.28515625 -180.41796875 178.47265625 C-177.85015137 182.45720046 -174.29098042 184.14237929 -170.28515625 186.5703125 C-166.67118793 188.8830415 -164.74282162 190.54478873 -162.60546875 194.28515625 C-163.02285681 199.94711606 -164.23268599 205.33599569 -165.54296875 210.84765625 C-171.18310956 235.6200892 -174.39914438 259.80255108 -160.60546875 282.28515625 C-158.02560646 286.344444 -155.34688454 290.33324518 -152.60546875 294.28515625 C-146.63736489 291.17045406 -143.57869763 286.41035142 -139.80029297 280.98193359 C-138.61144128 279.29363788 -137.37798076 277.64511359 -136.140625 275.9921875 C-131.85138764 270.11191727 -131.85138764 270.11191727 -130.7421875 263.16015625 C-131.49634876 260.39367202 -132.44712119 257.90345884 -133.60546875 255.28515625 C-137.79164382 241.34363181 -135.00689269 223.88741123 -130.60546875 210.28515625 C-130.29198486 209.28911377 -130.29198486 209.28911377 -129.97216797 208.27294922 C-125.2366565 193.57690126 -117.97347006 179.79363771 -107.60546875 168.28515625 C-106.9815625 167.58003906 -106.35765625 166.87492188 -105.71484375 166.1484375 C-97.37808985 157.25251108 -85.10014922 149.04924003 -72.64453125 148.046875 C-51.63327973 147.59010866 -36.11935035 157.66439226 -19.60546875 169.28515625 C-19.51571777 167.9811084 -19.4259668 166.67706055 -19.33349609 165.33349609 C-17.67556058 141.55309126 -15.80702419 117.85092034 -12.60546875 94.22265625 C-12.47682434 93.27059296 -12.34817993 92.31852966 -12.21563721 91.33761597 C-11.5868251 86.699473 -10.95060431 82.06238435 -10.31054688 77.42578125 C-9.2696467 69.86496466 -8.27623534 62.29907019 -7.35546875 54.72265625 C-7.27428802 54.05693604 -7.1931073 53.39121582 -7.10946655 52.70532227 C-5.52061356 39.44079795 -4.78064115 26.13933607 -4.20019531 12.79663086 C-4.16598984 12.03302246 -4.13178436 11.26941406 -4.09654236 10.48266602 C-4.03353498 9.04593444 -3.97502877 7.60899637 -3.92164612 6.171875 C-3.67313345 0.40200711 -3.67313345 0.40200711 0 0 Z M-235.60546875 168.28515625 C-236.33765625 168.83042969 -237.06984375 169.37570313 -237.82421875 169.9375 C-260.66107174 188.32865415 -270.59608162 219.03513158 -273.94189453 247.10791016 C-275.35588783 261.87422896 -274.44473259 274.82583574 -267.60546875 288.28515625 C-265.85364187 290.47819334 -265.85364187 290.47819334 -263.72265625 290.40234375 C-251.29219297 289.05968047 -244.1008445 281.71447943 -235.60546875 273.28515625 C-235.10015625 272.78918945 -234.59484375 272.29322266 -234.07421875 271.78222656 C-209.95081123 247.83525354 -204.75963583 215.36820655 -204.35546875 182.72265625 C-204.3234436 181.38654297 -204.3234436 181.38654297 -204.29077148 180.0234375 C-204.24563742 171.22639884 -206.09378533 163.26662191 -211.60546875 156.28515625 C-220.79623223 156.28515625 -228.69006587 163.01839967 -235.60546875 168.28515625 Z M-59.60546875 185.28515625 C-60.2603125 185.75179687 -60.91515625 186.2184375 -61.58984375 186.69921875 C-66.1930276 190.28970215 -69.46592495 194.56591894 -72.73046875 199.34765625 C-73.32396118 200.20315063 -73.32396118 200.20315063 -73.92944336 201.07592773 C-82.47818914 214.12382782 -86.64724835 229.87479492 -91.50097656 244.55639648 C-92.38374593 247.21941742 -93.27378609 249.87985352 -94.16796875 252.5390625 C-94.45223724 253.39067459 -94.73650574 254.24228668 -95.02938843 255.1197052 C-96.75774015 260.17929708 -98.7818696 264.84993632 -101.20703125 269.61328125 C-103.5523312 274.29160317 -103.5523312 274.29160317 -102.94140625 279.265625 C-101.97074219 280.85310547 -101.97074219 280.85310547 -100.98046875 282.47265625 C-100.64233154 283.04653076 -100.30419434 283.62040527 -99.95581055 284.21166992 C-98.89848102 285.95191364 -97.77394375 287.61789938 -96.60546875 289.28515625 C-95.90292969 290.29835938 -95.20039062 291.3115625 -94.4765625 292.35546875 C-91.23342787 297.05255458 -91.23342787 297.05255458 -86.58203125 300.02734375 C-75.3476597 301.49269656 -64.83561703 298.1076971 -55.875 291.24609375 C-37.36760377 275.25519373 -31.61347984 251.76400999 -27.10546875 228.72265625 C-26.90132355 227.69001144 -26.90132355 227.69001144 -26.6930542 226.63650513 C-24.53613581 216.72487959 -24.53613581 216.72487959 -27.0078125 207.26171875 C-29.19995407 202.27050389 -30.0977183 196.98102285 -31.16796875 191.66015625 C-31.58182666 189.62546161 -31.99966163 187.591571 -32.421875 185.55859375 C-32.60177979 184.66575684 -32.78168457 183.77291992 -32.96704102 182.85302734 C-33.62513321 180.20606224 -34.53620955 177.79127655 -35.60546875 175.28515625 C-44.67791537 175.28515625 -52.54641009 179.9255006 -59.60546875 185.28515625 Z M271.39453125 182.28515625 C247.95005053 206.84604082 246.89457953 250.38439091 247.39453125 282.28515625 C267.8323541 258.41876617 274.09730375 213.52492274 273.39453125 183.28515625 C272.73453125 182.95515625 272.07453125 182.62515625 271.39453125 182.28515625 Z " fill="#FBFCFB" transform="translate(749.60546875,76.71484375)"/>
<path d="M0 0 C3.86385965 2.45275553 7.45830524 5.10378051 11 8 C11.65871094 8.52078125 12.31742188 9.0415625 12.99609375 9.578125 C21.40230681 16.99206793 25.81460743 28.37512386 26.9140625 39.30859375 C27.421995 61.12660327 19.12356607 84.5332313 7.42578125 102.7578125 C5.8475356 105.23976593 4.45356256 107.78373307 3.0625 110.375 C0.82630434 114.49927643 -1.43419785 118.60727716 -3.75 122.6875 C-4.32234375 123.70199219 -4.8946875 124.71648437 -5.484375 125.76171875 C-5.98453125 126.50035156 -6.4846875 127.23898438 -7 128 C-7.66 128 -8.32 128 -9 128 C-9.25652344 128.72058594 -9.51304687 129.44117188 -9.77734375 130.18359375 C-11.07347964 133.16926142 -12.61701077 135.45672351 -14.5625 138.0625 C-15.27535156 139.02027344 -15.98820313 139.97804687 -16.72265625 140.96484375 C-17.47417969 141.96644531 -18.22570312 142.96804687 -19 144 C-19.74121094 145.01191406 -20.48242188 146.02382812 -21.24609375 147.06640625 C-25.87483251 153.34769299 -30.74138862 159.24160324 -36 165 C-37.12831919 166.28876825 -38.25336877 167.58040695 -39.375 168.875 C-40.58156946 170.25154807 -41.79012113 171.62635974 -43 173 C-44.28197266 174.45792969 -44.28197266 174.45792969 -45.58984375 175.9453125 C-46.49684885 176.96402893 -47.40439857 177.98226074 -48.3125 179 C-49.57513672 180.423125 -49.57513672 180.423125 -50.86328125 181.875 C-53 184 -53 184 -55 184 C-55 184.66 -55 185.32 -55 186 C-55.66 186 -56.32 186 -57 186 C-57 186.66 -57 187.32 -57 188 C-57.66 188 -58.32 188 -59 188 C-59 188.66 -59 189.32 -59 190 C-60.3984375 191.41015625 -60.3984375 191.41015625 -62.375 193.0625 C-65.57546345 195.77923786 -68.71306063 198.54335219 -71.8125 201.375 C-84.24771011 212.57806276 -97.61444652 222.66025969 -111.22265625 232.3828125 C-111.77961182 232.79120361 -112.33656738 233.19959473 -112.91040039 233.62036133 C-115 235 -115 235 -118.07202148 236.57299805 C-124.5316457 240.03844504 -124.5316457 240.03844504 -128.01147461 246.17675781 C-128.29686783 250.01659393 -128.20338863 253.73168282 -127.9375 257.5625 C-127.88305386 258.94996605 -127.83256036 260.33759248 -127.78588867 261.7253418 C-127.62243558 265.82723606 -127.32692723 269.90780805 -127 274 C-126.86803223 275.68319336 -126.86803223 275.68319336 -126.73339844 277.40039062 C-124.8561063 298.8647703 -119.91575595 320.92518318 -106.3203125 338.125 C-105 340 -105 340 -105 342 C-104.34 342 -103.68 342 -103 342 C-102.27425781 342.74121094 -101.54851562 343.48242188 -100.80078125 344.24609375 C-97.84362886 347.15375405 -94.81843233 349.13931235 -91.1875 351.0625 C-90.54167969 351.40611572 -89.89585937 351.74973145 -89.23046875 352.10375977 C-72.1596137 360.75203549 -52.28314985 362.16365111 -34 357 C-28.9566754 354.93065381 -24.13565149 352.63292291 -19.79296875 349.3125 C-18 348 -18 348 -16 348 C-16 347.34 -16 346.68 -16 346 C-14.28515625 344.30859375 -14.28515625 344.30859375 -12.0625 342.4375 C-11.33160156 341.81746094 -10.60070312 341.19742187 -9.84765625 340.55859375 C-9.23792969 340.04425781 -8.62820312 339.52992188 -8 339 C-6.7716467 337.99196218 -6.7716467 337.99196218 -6.86938477 335.93994141 C-6.8947454 328.71281119 -7.33828057 321.57514453 -7.9375 314.375 C-8.96755298 301.25681207 -9.61146394 288.15181876 -10 275 C-10.06380859 273.21529297 -10.06380859 273.21529297 -10.12890625 271.39453125 C-10.5492667 250.18034062 -9.05511463 227.08267194 3 209 C7.76289249 207.5536414 10.39937 208.17399655 14.75 210.4375 C26.40519026 216.7066893 33.9517308 223.37118911 38.125 236 C46.66288603 265.6579199 46.47753838 295.10382071 32.1875 322.8125 C31.69008301 323.77929688 31.19266602 324.74609375 30.68017578 325.7421875 C28.18033858 330.43674777 25.80918991 334.25177298 22.109375 338.078125 C17.31765479 344.03387938 18.43271829 351.22799206 18.8999939 358.42785645 C19.06581795 360.98874041 19.18680252 363.54842327 19.29614258 366.11230469 C19.4439065 369.53191507 19.60557506 372.95031458 19.78027344 376.36865234 C21.95878563 420.40252836 18.4860005 465.95075578 9 509 C8.76522949 510.06573242 8.53045898 511.13146484 8.28857422 512.22949219 C-4.78158646 570.64742775 -4.78158646 570.64742775 -26 586 C-31.93272324 589.48269078 -38.45184334 592.08760268 -45.3359375 590.44140625 C-57.28243782 586.20171765 -72.17602322 575.42395446 -78 564 C-81.52944262 555.25134301 -83.33293859 546.24461328 -85 537 C-82.06275541 536.12507608 -80.51969142 535.78661677 -77.640625 536.96875 C-75.06981813 538.61541061 -72.51715701 540.27202594 -70 542 C-69.18402344 542.55429687 -68.36804688 543.10859375 -67.52734375 543.6796875 C-59.47660007 549.51278058 -55.87075989 555.29188469 -54.26171875 565.09375 C-54.17535156 565.7228125 -54.08898437 566.351875 -54 567 C-32.25147731 554.49245039 -22.72140584 534.14929941 -15.97460938 510.68701172 C-9.94932779 487.89297301 -6.59905182 464.4968754 -5 441 C-4.95308014 440.34794586 -4.90616028 439.69589172 -4.8578186 439.02407837 C-3.76482393 423.46407526 -3.88578928 407.90279391 -3.9375 392.3125 C-3.94310871 389.65299564 -3.94708862 386.99349187 -3.95117188 384.33398438 C-3.9620673 377.88930232 -3.97870086 371.44465564 -4 365 C-4.82029694 365.41871368 -5.64059387 365.83742737 -6.48574829 366.26882935 C-7.56375702 366.81449554 -8.64176575 367.36016174 -9.75244141 367.92236328 C-10.82023834 368.46482697 -11.88803528 369.00729065 -12.9881897 369.56619263 C-30.50486497 377.9052099 -51.74004028 374.42254683 -69.4375 368.375 C-94.8790636 359.16038186 -118.94538144 341.70880095 -130.75 316.75 C-139.65400042 297.02098259 -142.35169494 276.40133247 -144 255 C-150.65427093 258.26688552 -157.16811101 261.66494265 -163.5 265.5234375 C-169.57236083 269.17015419 -175.72196345 272.41365619 -182.125 275.4375 C-182.87185059 275.79166992 -183.61870117 276.14583984 -184.38818359 276.51074219 C-189.742925 279 -189.742925 279 -192 279 C-192 279.99 -192 280.98 -192 282 C-200.82164258 281.53570302 -208.06082459 275.23357892 -214.50390625 269.7109375 C-216.16692011 267.80910963 -216.60648239 266.46891872 -217 264 C-196.9375 253.96875 -196.9375 253.96875 -194.96557617 252.98291016 C-193.64269233 252.32138608 -192.31994081 251.65959734 -190.99731445 250.99755859 C-187.70303363 249.34901704 -184.40675823 247.70477852 -181.10546875 246.0703125 C-173.65411871 242.37533593 -166.24605693 238.60287483 -158.875 234.75 C-158.0811792 234.33766113 -157.2873584 233.92532227 -156.46948242 233.50048828 C-155.7138501 233.1032959 -154.95821777 232.70610352 -154.1796875 232.296875 C-153.51694824 231.94979492 -152.85420898 231.60271484 -152.17138672 231.24511719 C-151.4548291 230.83422852 -150.73827148 230.42333984 -150 230 C-148.94651367 229.46769775 -147.89302734 228.93539551 -146.80761719 228.38696289 C-143.64205634 226.17478975 -143.64205634 226.17478975 -143.10693359 222.18237305 C-143.00864559 220.62704038 -142.94116937 219.06956798 -142.8984375 217.51171875 C-142.85136658 216.66913513 -142.80429565 215.82655151 -142.75579834 214.95843506 C-142.65673867 213.14631837 -142.57012143 211.33348709 -142.49468994 209.52023315 C-142.29245766 204.73394894 -141.99159582 199.9536007 -141.703125 195.171875 C-141.64774567 194.21466049 -141.59236633 193.25744598 -141.53530884 192.27122498 C-140.24488874 170.60765794 -136.79862273 149.15226888 -132 128 C-131.81356934 127.16645996 -131.62713867 126.33291992 -131.43505859 125.47412109 C-125.52589569 99.61166725 -115.25870921 73.78293915 -100 52 C-99.29230469 50.98679688 -98.58460938 49.97359375 -97.85546875 48.9296875 C-78.49466399 22.2082885 -35.53339693 -20.17945999 0 0 Z M-45 30 C-46.08685928 30.81864462 -47.17528533 31.63521536 -48.265625 32.44921875 C-49.25046875 33.18785156 -50.2353125 33.92648438 -51.25 34.6875 C-57 39 -57 39 -59.359375 40.64453125 C-59.90078125 41.09183594 -60.4421875 41.53914063 -61 42 C-61 42.66 -61 43.32 -61 44 C-61.61875 44.2475 -62.2375 44.495 -62.875 44.75 C-65.35068687 46.20628639 -65.95125002 47.37812506 -67 50 C-67.66 50 -68.32 50 -69 50 C-69 50.66 -69 51.32 -69 52 C-69.66 52 -70.32 52 -71 52 C-73.56374122 54.80625728 -75.73574586 57.94973259 -78 61 C-78.62261719 61.80824219 -79.24523437 62.61648437 -79.88671875 63.44921875 C-88.34141948 74.64783858 -95.72657777 86.98063522 -101 100 C-101.38285156 100.93070312 -101.76570313 101.86140625 -102.16015625 102.8203125 C-103.50126604 106.19249211 -104.76945004 109.5863509 -106 113 C-106.27102539 113.75039551 -106.54205078 114.50079102 -106.82128906 115.27392578 C-111.60082342 128.66463238 -115.14568172 142.08056475 -118 156 C-118.21398437 157.01191406 -118.42796875 158.02382812 -118.6484375 159.06640625 C-122.41337635 176.93879244 -126.2552977 195.65800201 -126 214 C-122.02122133 213.4446581 -119.60123516 212.30592347 -116.375 209.9375 C-115.50101563 209.30199219 -114.62703125 208.66648438 -113.7265625 208.01171875 C-112.82679688 207.34785156 -111.92703125 206.68398437 -111 206 C-109.71222656 205.08154297 -109.71222656 205.08154297 -108.3984375 204.14453125 C-95.72506194 195.0787685 -83.7241952 185.25282489 -72 175 C-71.05769531 174.18273437 -70.11539063 173.36546875 -69.14453125 172.5234375 C-64.63151338 168.54979695 -60.51157914 164.48416383 -56.63671875 159.88671875 C-55.04384275 158.0505395 -53.37487844 156.37330967 -51.625 154.6875 C-47.00346942 150.13834238 -43.04664316 145.0565384 -39 140 C-38.37480469 139.24203125 -37.74960938 138.4840625 -37.10546875 137.703125 C-26.63396029 124.91686204 -17.06012402 111.43169419 -9 97 C-8.58621094 96.26668457 -8.17242187 95.53336914 -7.74609375 94.77783203 C4.51658521 72.88345933 14.53529991 47.83667707 8.75 22.375 C7.42662588 17.77801623 5.62799989 13.98731017 3 10 C-14.93519739 8.78405441 -31.33288294 19.39204556 -45 30 Z M22 250 C18.14221342 266.2284222 16.73915126 282.36909654 16 299 C16.66 299.33 17.32 299.66 18 300 C23.52613163 283.31430158 24.52583596 267.4440165 23 250 C22.67 250 22.34 250 22 250 Z M16 300 C17 302 17 302 17 302 Z " fill="#FAFBFA" transform="translate(245,32)"/>
<path d="M0 0 C8.77975479 0.27916549 15.37960034 4.38600865 22.375 9.3125 C22.97014404 9.73128418 23.56528809 10.15006836 24.1784668 10.58154297 C29.25442765 14.29502802 33.13759035 18.20692052 35 24.375 C35.28121242 26.63796407 35.48704889 28.91130662 35.625 31.1875 C35.73714844 32.92966797 35.73714844 32.92966797 35.8515625 34.70703125 C35.90054688 35.58746094 35.94953125 36.46789062 36 37.375 C36.66 37.045 37.32 36.715 38 36.375 C39.73368472 36.16377906 41.46810083 35.95699624 43.20556641 35.77954102 C52.59798651 34.81200203 61.6407079 33.09464077 70.140625 28.78125 C73.93005438 26.91759621 76.9208656 26.54546174 81 27.375 C90.12629628 30.85958585 99.07666384 36.45166384 106 43.375 C106.53461664 48.12714794 105.6723221 50.52821727 102.9375 54.375 C91.69171335 71.20987501 83.20483478 91.55220746 79 111.375 C78.80792969 112.25542969 78.61585938 113.13585937 78.41796875 114.04296875 C77.78505916 119.08850031 77.81560705 124.10746823 77.8125 129.1875 C77.80025391 130.22970703 77.78800781 131.27191406 77.77539062 132.34570312 C77.76355495 138.63044765 78.24622632 144.33172684 80 150.375 C80.27070313 151.36628906 80.54140625 152.35757813 80.8203125 153.37890625 C81.82732274 155.58371125 81.82732274 155.58371125 84.1796875 156.08984375 C85.06914062 156.16332031 85.95859375 156.23679687 86.875 156.3125 C96.66089729 157.72686797 104.40591016 162.66004476 112.1875 168.5 C113.03513916 169.12938477 113.03513916 169.12938477 113.89990234 169.77148438 C116.21712231 171.58402715 117.81709716 172.88670736 118.86328125 175.6796875 C118.90839844 176.23914063 118.95351563 176.79859375 119 177.375 C99.14113235 178.63662218 80.59267886 170.67657246 65.1875 158.5625 C53.25262011 147.5456878 47.69043853 132.47000355 46.78125 116.54296875 C46.13709518 95.85222973 51.56097138 75.54821068 59 56.375 C57.26363281 56.19324219 57.26363281 56.19324219 55.4921875 56.0078125 C53.95308708 55.83888684 52.41402663 55.66959668 50.875 55.5 C50.11445313 55.42136719 49.35390625 55.34273438 48.5703125 55.26171875 C47.82265625 55.17792969 47.075 55.09414063 46.3046875 55.0078125 C45.62390137 54.93449707 44.94311523 54.86118164 44.24169922 54.78564453 C41.38624176 54.26256901 38.73491691 53.33684187 36 52.375 C35.94180084 52.92464417 35.88360168 53.47428833 35.82363892 54.04058838 C35.21126215 59.81723578 34.59384246 65.59332907 33.97363281 71.36914062 C33.74352593 73.51809401 33.51465897 75.66718057 33.28710938 77.81640625 C30.86721979 100.65676759 27.41475618 120.75471266 17 141.375 C16.505 142.36371094 16.01 143.35242188 15.5 144.37109375 C8.0059497 158.72790207 -1.98213282 172.62732439 -16.875 179.75 C-28.44884675 182.06476935 -35.54057847 178.84907385 -45.18212891 172.61572266 C-48.02344693 170.67648304 -50.52382208 168.78207528 -53 166.375 C-53 165.055 -53 163.735 -53 162.375 C-51.87464844 162.26285156 -51.87464844 162.26285156 -50.7265625 162.1484375 C-40.31477551 160.81090315 -33.14159562 156.96294534 -26 149.375 C-25.34 149.375 -24.68 149.375 -24 149.375 C-23.76796875 148.84003906 -23.5359375 148.30507813 -23.296875 147.75390625 C-21.61391139 144.66678324 -19.44149166 142.04448683 -17.25 139.3125 C2.894041 113.45575458 7.06166233 79.75086847 9.35400391 48.01733398 C9.46107666 46.56435913 9.46107666 46.56435913 9.5703125 45.08203125 C9.62977051 44.2206958 9.68922852 43.35936035 9.75048828 42.47192383 C10 40.375 10 40.375 11 38.375 C10.44183594 38.12878906 9.88367188 37.88257813 9.30859375 37.62890625 C0.36813979 32.77292364 -5.82074838 24.91275487 -9 15.375 C-9.34897334 9.96591325 -9.40316685 6.82529511 -6 2.375 C-3.67135666 0.04635666 -3.16677929 0.05654963 0 0 Z " fill="#FBFCFB" transform="translate(338,206.625)"/>
<path d="M0 0 C0 0.99 0 1.98 0 3 C-0.73643738 3.0972084 -1.47287476 3.19441681 -2.23162842 3.29457092 C-11.73788511 4.54954289 -21.24397974 5.80573851 -30.75 7.0625 C-31.51667496 7.16384499 -32.28334991 7.26518997 -33.07325745 7.36960602 C-56.33597683 10.44481228 -79.59526842 13.54356803 -102.84667969 16.70336914 C-112.68699282 18.03732011 -122.53070859 19.32221872 -132.38671875 20.53515625 C-141.97327831 21.71899475 -151.52174773 23.05556504 -161.0625 24.5625 C-162.43551521 24.77299313 -163.80856222 24.98327887 -165.18164062 25.19335938 C-166.50789398 25.40052069 -167.83406936 25.60818202 -169.16015625 25.81640625 C-170.31136963 25.99631104 -171.46258301 26.17621582 -172.64868164 26.36157227 C-176.19492397 27.03713311 -179.54581585 27.95894156 -183 29 C-182.36537842 28.96685699 -181.73075684 28.93371399 -181.0769043 28.89956665 C-174.73979169 28.56985413 -168.4023558 28.2470978 -162.06459045 27.93017006 C-158.81534056 27.76749411 -155.56627566 27.6023419 -152.31738281 27.43261719 C-100.40463225 24.72665986 -48.50070554 23.63704032 3.47488785 23.74225235 C7.71774368 23.75068212 11.96059857 23.75466106 16.20346069 23.75839233 C57.07649037 23.79849946 97.90263234 24.16859609 138.74633789 25.82885742 C143.39898348 26.01730399 148.0520027 26.19557652 152.70507812 26.37304688 C153.54190785 26.40500562 154.37873758 26.43696436 155.24092579 26.46989155 C156.95627421 26.53539844 158.67162309 26.60089319 160.38697243 26.66637611 C171.24000665 27.08107947 182.09283559 27.4992152 192.94458008 27.9465332 C209.19427719 28.61323427 225.44082404 29.17343442 241.69903374 29.58764839 C253.65881432 29.89329796 265.60861254 30.29118412 277.55859375 30.875 C280.22375144 31.00480981 282.88917694 31.1276675 285.5546875 31.25 C287.30991422 31.33294513 289.06512341 31.41626232 290.8203125 31.5 C291.58803986 31.53544922 292.35576721 31.57089844 293.14675903 31.60742188 C297.17416375 31.80719578 301.17866935 32.09742396 305.19287109 32.48144531 C311.81739595 33.10302162 318.449812 33.45303663 325.09375 33.796875 C326.51061856 33.87134197 327.92748347 33.94587849 329.34434509 34.02047729 C333.23948932 34.22452016 337.13481798 34.42480692 341.03022385 34.62378693 C343.51977945 34.75101079 346.00929526 34.87899457 348.49880981 35.00701904 C390.16154738 37.14355693 431.84076261 38.91956135 473.51984024 40.70256042 C476.96450011 40.85020831 480.40911713 40.99882569 483.85372925 41.14758301 C493.99915701 41.58417169 504.14462615 42.0109466 514.29222393 42.39427376 C518.6708025 42.56013371 523.04914109 42.73189878 527.42747688 42.90403366 C529.47453137 42.98268597 531.52170736 43.05824636 533.56899834 43.13048172 C536.37585811 43.22957525 539.18214085 43.33904291 541.98852539 43.45068359 C543.21152816 43.48949709 543.21152816 43.48949709 544.45923805 43.5290947 C549.28214024 43.73330119 553.40991728 44.49069714 558 46 C558 46.66 558 47.32 558 48 C535.37298682 47.2311007 512.76540838 46.08285291 490.15390015 44.95834351 C483.33946618 44.61969554 476.52485855 44.28463777 469.71020508 43.95043945 C468.00612504 43.86685543 468.00612504 43.86685543 466.26761913 43.78158283 C463.9793301 43.66936136 461.6910404 43.55715359 459.40275002 43.44495964 C432.19005285 42.1106179 432.19005285 42.1106179 419.43554688 41.47314453 C381.10486116 39.42976093 381.10486116 39.42976093 342.7331543 38.98486328 C332.24046477 39.097039 321.8492797 38.49464451 311.38916016 37.78320312 C301.55314967 37.11914023 291.72973625 36.70055897 281.875 36.4375 C281.18524078 36.41907043 280.49548157 36.40064087 279.78482056 36.38165283 C279.10277557 36.36350525 278.42073059 36.34535767 277.71801758 36.32666016 C268.6569731 36.08546615 259.605143 35.7615333 250.55224609 35.30444336 C246.22037199 35.09581545 241.91332487 34.99113953 237.57617188 35.02734375 C230.61695797 35.03659463 223.68779215 34.72173711 216.73828125 34.37890625 C213.93203161 34.24575166 211.12567603 34.11487502 208.31933594 33.98364258 C207.59202302 33.94936598 206.8647101 33.91508938 206.1153574 33.87977409 C172.41410007 32.29448143 138.74109654 31.21318282 105 31 C104.16052574 30.99460205 103.32105148 30.9892041 102.45613861 30.98364258 C37.1028133 30.57151071 -28.02001669 31.26852776 -93.28374004 34.71251202 C-144.99489867 37.43926083 -144.99489867 37.43926083 -165.96575928 37.65203857 C-168.02960664 37.67520457 -170.09336624 37.70974359 -172.15679932 37.75714111 C-184.59747289 38.02129151 -193.38898707 36.86745469 -204 30 C-204 29.01 -204 28.02 -204 27 C-199.98063063 26.20078441 -195.95925684 25.41210579 -191.9375 24.625 C-190.82310547 24.40328125 -189.70871094 24.1815625 -188.56054688 23.953125 C-180.07388378 22.29956314 -171.57874461 21.06636538 -163 20 C-161.12066772 19.76168457 -161.12066772 19.76168457 -159.20336914 19.51855469 C-155.32369089 19.02817723 -151.44323402 18.54444652 -147.5625 18.0625 C-144.28582238 17.65438485 -141.00914655 17.24625535 -137.73248291 16.83802795 C-133.86901058 16.35682447 -130.00539904 15.87677931 -126.14160156 15.39819336 C-112.91558389 13.75613063 -99.69560737 12.06817976 -86.4765625 10.37109375 C-84.61240216 10.13187524 -82.74824098 9.89266326 -80.88407898 9.65345764 C-73.18350353 8.66517339 -65.48295016 7.67672241 -57.78271484 6.68579102 C-53.00895215 6.07151604 -48.2349963 5.45876139 -43.46091843 4.84694099 C-41.67268206 4.61749106 -39.88451428 4.38750589 -38.0964241 4.15691948 C-29.05589196 2.99128528 -20.0130838 1.86193436 -10.95458984 0.84399414 C-9.81835898 0.71527373 -9.81835898 0.71527373 -8.65917397 0.5839529 C-5.75449726 0.26339509 -2.92492747 0 0 0 Z " fill="#F1F6F1" transform="translate(588,446)"/>
<path d="M0 0 C83.37734197 -0.41256692 166.59296923 1.18828933 281.875 7.5625 C283.26688349 7.6424288 283.26688349 7.6424288 284.68688583 7.72397232 C296.43048844 8.39879628 308.17153833 9.10439002 319.90983582 9.86612701 C321.89817192 9.99347801 323.8868845 10.11491043 325.87561035 10.23602295 C329.15051193 10.43916513 332.42270187 10.66551558 335.6953125 10.90234375 C336.59708221 10.9548378 337.49885193 11.00733185 338.427948 11.06141663 C343.47134964 11.46304293 346.28561168 12.26055918 350 16 C348.04823159 17.95176841 345.06888334 17.13280667 342.47094727 17.13891602 C341.51115967 17.13432373 340.55137207 17.12973145 339.5625 17.125 C338.53374756 17.12234131 337.50499512 17.11968262 336.44506836 17.11694336 C327.97951667 17.06776485 319.52338521 16.83277493 311.0625 16.5625 C240.64140463 14.34490649 170.2324034 14.80674582 99.79376984 15.68004036 C92.15843766 15.77313415 84.5230141 15.84323823 76.88738251 15.90659904 C70.64856118 15.96256141 64.41161054 16.06197166 58.17371368 16.18225861 C53.78917724 16.26107404 49.40454362 16.3143569 45.01957703 16.36277771 C42.93159955 16.39135898 40.84373565 16.43056996 38.75617981 16.4813385 C25.03115966 16.8084587 16.15871206 16.06829579 4.859375 7.6640625 C4.16328125 6.99117188 3.4671875 6.31828125 2.75 5.625 C2.02296875 4.93664062 1.2959375 4.24828125 0.546875 3.5390625 C0.03640625 3.03117187 -0.4740625 2.52328125 -1 2 C-0.67 1.34 -0.34 0.68 0 0 Z " fill="#F7FAF7" transform="translate(676,444)"/>
<path d="M0 0 C0.68531799 0.02750839 1.37063599 0.05501678 2.07672119 0.08335876 C4.33447575 0.17551813 6.59175127 0.27632678 8.84912109 0.37744141 C10.42986185 0.44418567 12.01062196 0.51047268 13.59140015 0.57632446 C16.9051804 0.71562469 20.21875406 0.85893603 23.53222656 1.00537109 C27.75133632 1.1917286 31.97072058 1.37054839 36.19027138 1.54660606 C39.45744384 1.68337589 42.72448775 1.82303293 45.99149704 1.96364212 C47.54538805 2.03040766 49.09930463 2.09658133 50.65324783 2.16212082 C58.21102502 2.48321471 65.7388066 2.8708264 73.2696228 3.6098938 C78.86639989 4.11072298 84.48040995 4.36050259 90.09130859 4.65087891 C91.50817715 4.72534587 92.92504206 4.7998824 94.34190369 4.8744812 C98.23704791 5.07852407 102.13237658 5.27881083 106.02778244 5.47779083 C108.51733805 5.6050147 111.00685386 5.73299848 113.49636841 5.86102295 C155.15910597 7.99756084 196.8383212 9.77356525 238.51739883 11.55656433 C241.96205871 11.70421221 245.40667572 11.8528296 248.85128784 12.00158691 C258.9967156 12.4381756 269.14218474 12.86495051 279.28978252 13.24827766 C283.6683611 13.41413762 288.04669968 13.58590268 292.42503548 13.75803757 C294.47208997 13.83668988 296.51926596 13.91225027 298.56655693 13.98448563 C301.3734167 14.08357916 304.17969945 14.19304681 306.98608398 14.3046875 C307.80141916 14.33056316 308.61675434 14.35643883 309.45679665 14.3830986 C314.27969883 14.5873051 318.40747587 15.34470105 322.99755859 16.85400391 C322.99755859 17.51400391 322.99755859 18.17400391 322.99755859 18.85400391 C300.37054542 18.08510461 277.76296698 16.93685681 255.15145874 15.81234741 C248.33702478 15.47369944 241.52241715 15.13864168 234.70776367 14.80444336 C233.57171031 14.74872067 232.43565695 14.69299799 231.26517773 14.63558674 C228.97688869 14.52336527 226.68859899 14.4111575 224.40030861 14.29896355 C197.18761144 12.96462181 197.18761144 12.96462181 184.43310547 12.32714844 C146.10241975 10.28376484 146.10241975 10.28376484 107.73071289 9.83886719 C97.23802337 9.95104291 86.84683829 9.34864841 76.38671875 8.63720703 C66.55070826 7.97314414 56.72729485 7.55456288 46.87255859 7.29150391 C45.83791977 7.26385956 45.83791977 7.26385956 44.78237915 7.23565674 C44.10033417 7.21750916 43.41828918 7.19936157 42.71557617 7.18066406 C33.6545317 6.93947006 24.60270159 6.61553721 15.54980469 6.15844727 C11.24461326 5.95110442 6.96799937 5.84738647 2.65771484 5.88916016 C-6.49034463 5.92511547 -15.62024811 5.33634946 -24.75244141 4.85400391 C-26.62482277 4.75736905 -28.49721854 4.66101272 -30.36962891 4.56494141 C-34.91407201 4.33117143 -39.45830394 4.09363864 -44.00244141 3.85400391 C-44.00244141 3.52400391 -44.00244141 3.19400391 -44.00244141 2.85400391 C-33.44244141 2.52400391 -22.88244141 2.19400391 -12.00244141 1.85400391 C-12.00244141 1.52400391 -12.00244141 1.19400391 -12.00244141 0.85400391 C-7.89908557 -0.15897772 -4.21450948 -0.17918652 0 0 Z " fill="#C3CFC6" transform="translate(823.00244140625,475.14599609375)"/>
<path d="M0 0 C1.49225848 0.06626803 2.98454899 0.13181809 4.47686768 0.19671631 C8.49801144 0.37358078 12.51863993 0.56033665 16.53924823 0.74893212 C20.81040883 0.94748099 25.08198955 1.13655732 29.35353088 1.32670593 C37.47846249 1.68977688 45.60300062 2.06098077 53.72742277 2.43526095 C63.68264276 2.89352341 73.63830423 3.34187711 83.59399414 3.78979492 C94.06790803 4.26109751 104.54175375 4.73365045 115.01522827 5.21463013 C129.63992352 5.88525358 144.26401418 6.54631804 158.89331055 7.10961914 C160.02332143 7.15394042 161.15333231 7.1982617 162.31758595 7.24392605 C167.34070207 7.44082972 172.36379919 7.63072496 177.38780212 7.80354309 C179.07967515 7.86849968 180.77153516 7.93379672 182.46337891 7.99951172 C183.19601267 8.02121367 183.92864643 8.04291561 184.68348122 8.06527519 C189.30306713 8.25629209 193.19705119 9.09098483 197.56079102 10.50268555 C197.56079102 11.16268555 197.56079102 11.82268555 197.56079102 12.50268555 C173.81906827 11.69590677 150.09774879 10.47537672 126.37232971 9.29532242 C116.09544978 8.78472247 105.8183673 8.27821182 95.54125977 7.7722168 C94.41443913 7.71670591 93.28761848 7.66119503 92.12665176 7.604002 C72.35659923 6.63091287 52.5845952 5.70829068 32.81079102 4.81518555 C12.04986033 3.87663938 -8.70052486 2.85231133 -29.43920898 1.50268555 C-29.43920898 1.17268555 -29.43920898 0.84268555 -29.43920898 0.50268555 C-19.53560963 -0.42581777 -9.93346251 -0.48153566 0 0 Z " fill="#EDF4EB" transform="translate(948.439208984375,481.497314453125)"/>
<path d="M0 0 C0 0.99 0 1.98 0 3 C-0.73643738 3.0972084 -1.47287476 3.19441681 -2.23162842 3.29457092 C-34.09574379 7.50112381 -65.95961014 11.70911625 -97.8125 16 C-98.90582642 16.1472049 -99.99915283 16.29440979 -101.12561035 16.44607544 C-104.19447754 16.85943865 -107.26327484 17.27331527 -110.33203125 17.6875 C-111.21754166 17.80689438 -112.10305206 17.92628876 -113.01539612 18.04930115 C-116.66548323 18.54281312 -120.31390321 19.04274258 -123.95874023 19.57373047 C-128.77388741 20.24863189 -133.33066657 20.55644448 -138 19 C-139.56118428 18.93259135 -141.1250252 18.91485544 -142.6875 18.9375 C-143.49574219 18.94652344 -144.30398438 18.95554687 -145.13671875 18.96484375 C-145.75160156 18.97644531 -146.36648438 18.98804688 -147 19 C-147 18.67 -147 18.34 -147 18 C-146.24122559 17.91024902 -145.48245117 17.82049805 -144.70068359 17.72802734 C-128.37971565 15.79016881 -112.07285776 13.76514705 -95.77828979 11.61633301 C-75.542087 8.94807678 -55.29263678 6.39634941 -35.034729 3.89915466 C-32.81581009 3.62540836 -30.59698139 3.35094116 -28.37817383 3.07629395 C-24.87372556 2.64267175 -21.36903692 2.21104785 -17.86414146 1.78105545 C-15.9344241 1.54396387 -14.00490654 1.30524795 -12.07539368 1.0664978 C-10.92105331 0.92547638 -9.76671295 0.78445496 -8.57739258 0.63916016 C-7.56808182 0.51513824 -6.55877106 0.39111633 -5.51887512 0.26333618 C-3 0 -3 0 0 0 Z " fill="#D4E2D7" transform="translate(588,446)"/>
<path d="M0 0 C0 0.33 0 0.66 0 1 C-8.58952127 3.60456451 -17.16602731 4.72730219 -26.05029297 5.79736328 C-33.48769545 6.72447001 -40.75601126 8.05976628 -48.06079102 9.73022461 C-51.49964577 10.51183453 -54.45007138 11 -58 11 C-58 11.66 -58 12.32 -58 13 C-58.66 13 -59.32 13 -60 13 C-60.33 13.99 -60.66 14.98 -61 16 C-62.765625 16.83984375 -62.765625 16.83984375 -65 17 C-67.359375 16.00390625 -67.359375 16.00390625 -69.75 14.5625 C-70.54921875 14.08941406 -71.3484375 13.61632812 -72.171875 13.12890625 C-72.77515625 12.75636719 -73.3784375 12.38382812 -74 12 C-74 11.01 -74 10.02 -74 9 C-47.47732836 3.72620437 -47.47732836 3.72620437 -36.28125 2.40234375 C-34.06639589 2.13076045 -31.85719231 1.80908703 -29.65625 1.44140625 C-19.73165438 -0.20889921 -10.02595253 -0.19239568 0 0 Z " fill="#EBF3EC" transform="translate(458,464)"/>
<path d="M0 0 C1.33333333 1.66666667 2.66666667 3.33333333 4 5 C4.7425 5.886875 5.485 6.77375 6.25 7.6875 C8 10 8 10 8 12 C8.66 12 9.32 12 10 12 C10.71929687 12.73992187 11.43859375 13.47984375 12.1796875 14.2421875 C15.22548755 17.2204906 18.38299728 19.17956069 22.125 21.125 C22.77863525 21.47046875 23.43227051 21.8159375 24.10571289 22.171875 C29.54043009 24.95326122 35.00230724 26.80295529 41 28 C36.375 32.875 36.375 32.875 33 34 C30.60519251 33.01658095 28.44855718 31.98585734 26.1875 30.75 C25.5267749 30.39228516 24.8660498 30.03457031 24.18530273 29.66601562 C16.8418044 25.55009269 10.36008219 20.48721009 4 15 C3.113125 14.23945313 2.22625 13.47890625 1.3125 12.6953125 C-2.80578585 8.90591754 -2.80578585 8.90591754 -4 7 C-3.87890625 4.3984375 -3.87890625 4.3984375 -3 2 C-2.01 1.34 -1.02 0.68 0 0 Z " fill="#F0F5F0" transform="translate(132,362)"/>
<path d="M0 0 C2.51344645 0.11423987 5.02692578 0.22775869 7.54043579 0.34059143 C13.4441004 0.60733404 19.34739615 0.88126115 25.25056231 1.15880018 C32.6432645 1.50591816 40.03647703 1.84164755 47.4296875 2.17773438 C60.59157086 2.77741774 73.75297306 3.38705633 86.9140625 4.00390625 C86.9140625 4.33390625 86.9140625 4.66390625 86.9140625 5.00390625 C72.7183469 6.34447973 58.65290075 6.09996633 44.42578125 5.41796875 C43.08084252 5.35584211 41.7358918 5.29397454 40.39093018 5.23234558 C36.85252599 5.0691877 33.3143544 4.9014478 29.77622604 4.73242569 C27.59005289 4.62835836 25.4038193 4.52566788 23.21755981 4.4234314 C2.10744709 3.43578476 -18.99678857 2.37633947 -40.0859375 1.00390625 C-40.0859375 0.67390625 -40.0859375 0.34390625 -40.0859375 0.00390625 C-26.71305101 -1.5778954 -13.40704762 -0.64088673 0 0 Z " fill="#C9D7C9" transform="translate(959.0859375,481.99609375)"/>
<path d="M0 0 C1.24265625 0.04382813 2.4853125 0.08765625 3.765625 0.1328125 C5.70308594 0.21015625 5.70308594 0.21015625 7.6796875 0.2890625 C8.948125 0.33289063 10.2165625 0.37671875 11.5234375 0.421875 C18.89532657 0.69547088 26.21730614 1.14741363 33.5546875 1.9140625 C33.5546875 2.5740625 33.5546875 3.2340625 33.5546875 3.9140625 C37.1846875 3.9140625 40.8146875 3.9140625 44.5546875 3.9140625 C44.5546875 4.2440625 44.5546875 4.5740625 44.5546875 4.9140625 C39.64752328 5.05870767 34.74029847 5.20101849 29.83300781 5.34130859 C28.16892742 5.38919349 26.50486422 5.43767995 24.84082031 5.48681641 C8.42285166 5.97086001 -7.79200771 5.78045471 -24.1953125 4.9140625 C-26.06769387 4.81742765 -27.94008963 4.72107132 -29.8125 4.625 C-34.3569431 4.39123003 -38.90117504 4.15369724 -43.4453125 3.9140625 C-43.4453125 3.5840625 -43.4453125 3.2540625 -43.4453125 2.9140625 C-32.8853125 2.5840625 -22.3253125 2.2540625 -11.4453125 1.9140625 C-11.4453125 1.5840625 -11.4453125 1.2540625 -11.4453125 0.9140625 C-7.53064893 -0.02928483 -4.01806843 -0.14641672 0 0 Z " fill="#C6D1CA" transform="translate(822.4453125,475.0859375)"/>
<path d="M0 0 C0 0.99 0 1.98 0 3 C-6.13226973 3.86763252 -12.26625474 4.72149832 -18.40209961 5.56347656 C-20.48268367 5.85085272 -22.56278139 6.14177591 -24.64233398 6.43652344 C-36.49638859 8.11406474 -48.01248416 9.51451633 -60 9 C-59.67 8.34 -59.34 7.68 -59 7 C-56.7739563 6.4937439 -56.7739563 6.4937439 -53.79345703 6.13037109 C-52.12635178 5.92037979 -52.12635178 5.92037979 -50.42556763 5.70614624 C-49.21520844 5.56335236 -48.00484924 5.42055847 -46.7578125 5.2734375 C-45.52336395 5.12089508 -44.28891541 4.96835266 -43.01705933 4.81118774 C-39.72768548 4.40668819 -36.43752079 4.01041306 -33.14672852 3.61773682 C-30.4634761 3.29557479 -27.78126208 2.96522778 -25.09906197 2.63443565 C-19.55556225 1.95112625 -14.01125509 1.27419191 -8.46533203 0.61083984 C-7.48017609 0.49251801 -6.49502014 0.37419617 -5.48001099 0.25228882 C-3 0 -3 0 0 0 Z " fill="#D9E7DA" transform="translate(588,446)"/>
<path d="M0 0 C9.59219916 -0.12695558 19.16329145 0.03437389 28.75 0.375 C30.32104492 0.4212854 30.32104492 0.4212854 31.92382812 0.46850586 C33.40786133 0.52663452 33.40786133 0.52663452 34.921875 0.5859375 C36.24590332 0.63306885 36.24590332 0.63306885 37.59667969 0.68115234 C40.11859856 1.01573443 41.81131541 1.73290025 44 3 C44 3.33 44 3.66 44 4 C38.20595952 4.17036751 32.41174912 4.33056478 26.6171875 4.48217773 C24.65454937 4.53486278 22.69197806 4.59011304 20.72949219 4.64819336 C8.0865606 5.02023459 -4.38354863 4.94010698 -17 4 C-17 3.67 -17 3.34 -17 3 C-9.41 2.67 -1.82 2.34 6 2 C3.03 1.505 3.03 1.505 0 1 C0 0.67 0 0.34 0 0 Z " fill="#DCE4DD" transform="translate(768,474)"/>
<path d="M0 0 C4.42927549 0.11898632 8.8583621 0.24327745 13.28735352 0.37231445 C14.79154499 0.41541126 16.29577748 0.45710207 17.80004883 0.49731445 C19.97229326 0.55563457 22.14433602 0.61914484 24.31640625 0.68359375 C26.27235718 0.73858032 26.27235718 0.73858032 28.26782227 0.79467773 C31.91751656 0.99546225 35.39467558 1.42665752 39 2 C39 2.33 39 2.66 39 3 C36.69 3.33 34.38 3.66 32 4 C32 4.33 32 4.66 32 5 C27.41422912 5.02510318 22.82850001 5.04304634 18.24267578 5.05493164 C16.68928326 5.05989711 15.13589525 5.06667173 13.58251953 5.07543945 C3.66459056 5.12993357 -6.11294335 4.87962079 -16 4 C-16 3.67 -16 3.34 -16 3 C-8.08 2.505 -8.08 2.505 0 2 C0 1.34 0 0.68 0 0 Z " fill="#AABCB0" transform="translate(856,477)"/>
<path d="M0 0 C1.640625 1.515625 1.640625 1.515625 3 3 C-1.49864118 3.67605479 -5.99910162 4.33915381 -10.5 5 C-12.40265625 5.28617187 -12.40265625 5.28617187 -14.34375 5.578125 C-30.28940217 7.90353261 -30.28940217 7.90353261 -36 6 C-37.56118428 5.93259135 -39.1250252 5.91485544 -40.6875 5.9375 C-41.49574219 5.94652344 -42.30398438 5.95554687 -43.13671875 5.96484375 C-43.75160156 5.97644531 -44.36648438 5.98804688 -45 6 C-45 5.67 -45 5.34 -45 5 C-44.03698975 4.88406494 -43.07397949 4.76812988 -42.08178711 4.64868164 C-38.48289793 4.2152109 -34.88413173 3.78072629 -31.28540039 3.34594727 C-29.732699 3.15849938 -28.17996511 2.97132043 -26.62719727 2.78442383 C-24.38549177 2.51455559 -22.14390787 2.24369592 -19.90234375 1.97265625 C-19.21663803 1.89032242 -18.53093231 1.80798859 -17.82444763 1.72315979 C-1.88144308 -0.20904923 -1.88144308 -0.20904923 0 0 Z " fill="#CDDECF" transform="translate(486,459)"/>
<path d="M0 0 C2.96343026 0.15146803 5.92724304 0.29085709 8.89135742 0.42822266 C10.80350034 0.51997414 12.71561112 0.61239844 14.62768555 0.70556641 C15.49976151 0.74728973 16.37183746 0.78901306 17.27033997 0.83200073 C22.7589164 1.11590346 28.18225753 1.62180536 33.6394043 2.27587891 C33.6394043 2.60587891 33.6394043 2.93587891 33.6394043 3.27587891 C24.84733203 4.15510302 16.36961022 4.27716338 7.55737305 3.71728516 C5.78708488 3.61528053 5.78708488 3.61528053 3.98103333 3.51121521 C0.26245641 3.29509329 -3.45526585 3.06695677 -7.1730957 2.83837891 C-9.71536637 2.68849043 -12.25768392 2.53939474 -14.80004883 2.39111328 C-20.98746857 2.02851977 -27.17423525 1.65609629 -33.3605957 1.27587891 C-33.3605957 0.94587891 -33.3605957 0.61587891 -33.3605957 0.27587891 C-22.16532722 -0.95030954 -11.22086732 -0.57427795 0 0 Z " fill="#F3F8F2" transform="translate(952.360595703125,481.72412109375)"/>
<path d="M0 0 C2.05139326 0.10170187 4.10282559 0.20261879 6.15429688 0.30273438 C11.12419396 0.54695807 16.09344406 0.80174345 21.0625 1.0625 C21.0625 1.3925 21.0625 1.7225 21.0625 2.0625 C7.01526511 3.09619928 -6.86506182 3.25804585 -20.9375 2.625 C-21.82203857 2.58584473 -22.70657715 2.54668945 -23.61791992 2.50634766 C-28.45031189 2.26667938 -33.16069759 1.83483626 -37.9375 1.0625 C-37.9375 0.7325 -37.9375 0.4025 -37.9375 0.0625 C-25.21975979 -1.23097836 -12.74174192 -0.67138025 0 0 Z " fill="#DCE6DA" transform="translate(1070.9375,486.9375)"/>
<path d="M0 0 C0 0.33 0 0.66 0 1 C-10.48408122 4.05305662 -22.47884127 7.25856425 -33 3 C-33 2.67 -33 2.34 -33 2 C-21.91331161 -0.02562659 -11.23136083 -0.21552718 0 0 Z " fill="#E8F0E9" transform="translate(458,464)"/>
<path d="M0 0 C14.78132118 -0.3690205 14.78132118 -0.3690205 21 2 C21 2.66 21 3.32 21 4 C8.13 3.505 8.13 3.505 -5 3 C-5 2.67 -5 2.34 -5 2 C-3.35 1.67 -1.7 1.34 0 1 C0 0.67 0 0.34 0 0 Z " fill="#DEE9DE" transform="translate(1125,490)"/>
<path d="M0 0 C8.57142857 0.85714286 8.57142857 0.85714286 12 3 C11.071875 3.4021875 11.071875 3.4021875 10.125 3.8125 C7.7004767 4.95556848 7.7004767 4.95556848 6 8 C0.25 6.125 0.25 6.125 -2 5 C-2 4.01 -2 3.02 -2 2 C-1.34 2 -0.68 2 0 2 C0 1.34 0 0.68 0 0 Z " fill="#F0F6EF" transform="translate(161,388)"/>
<path d="M0 0 C0.33 0.66 0.66 1.32 1 2 C1.66 2.33 2.32 2.66 3 3 C1.7934375 3.6496875 1.7934375 3.6496875 0.5625 4.3125 C-2.27846354 5.80474002 -2.27846354 5.80474002 -3 9 C-3.66 9 -4.32 9 -5 9 C-5.268125 9.5775 -5.53625 10.155 -5.8125 10.75 C-8.14968966 15.17835935 -11.28196244 18.6537662 -15 22 C-15.99 22 -16.98 22 -18 22 C-17.45472656 21.41734375 -16.90945312 20.8346875 -16.34765625 20.234375 C-10.41807139 13.78785198 -5.14328628 7.07657828 0 0 Z " fill="#E6F0E7" transform="translate(216,158)"/>
<path d="M0 0 C1.8125 1.5 1.8125 1.5 3 3 C0.81347261 3.33965474 -1.37428025 3.67142477 -3.5625 4 C-5.38974609 4.2784375 -5.38974609 4.2784375 -7.25390625 4.5625 C-10.87627848 4.98555077 -14.35712046 5.07501425 -18 5 C-18 4.01 -18 3.02 -18 2 C-15.93827387 1.66191314 -13.8755797 1.32972639 -11.8125 1 C-10.66394531 0.814375 -9.51539063 0.62875 -8.33203125 0.4375 C-2.71466845 -0.30006698 -2.71466845 -0.30006698 0 0 Z " fill="#C1D7C3" transform="translate(486,459)"/>
<path d="M0 0 C-7.05483087 3.83485072 -14.21087069 4.44243135 -22 3 C-15.25347335 -0.74455929 -7.4713948 -1.66030996 0 0 Z " fill="#D5E3D7" transform="translate(504,458)"/>
<path d="M0 0 C0 0.33 0 0.66 0 1 C-10.77700295 2.25763948 -21.20701997 1.74080644 -32 1 C-32 0.67 -32 0.34 -32 0 C-21.22323595 -1.18798974 -10.75974566 -1.43463275 0 0 Z " fill="#E9F0EA" transform="translate(986,484)"/>
<path d="M0 0 C0.66 0.33 1.32 0.66 2 1 C1.43410156 1.54269531 0.86820312 2.08539063 0.28515625 2.64453125 C-0.44832031 3.35996094 -1.18179687 4.07539063 -1.9375 4.8125 C-2.66839844 5.52019531 -3.39929688 6.22789062 -4.15234375 6.95703125 C-6.20834646 8.95536163 -6.20834646 8.95536163 -7 12 C-9.0625 12.6875 -9.0625 12.6875 -11 13 C-9.46356148 9.31930113 -7.21849055 7.01224796 -4.375 4.25 C-3.55773437 3.45078125 -2.74046875 2.6515625 -1.8984375 1.828125 C-0.95871094 0.92320312 -0.95871094 0.92320312 0 0 Z M-12 13 C-12 16.17370278 -12.30933342 17.3794668 -14 20 C-16.125 21.25 -16.125 21.25 -18 22 C-16.68775452 18.06326356 -15.08089673 15.77280706 -12 13 Z " fill="#E8F1EA" transform="translate(485,228)"/>
<path d="M0 0 C0 0.33 0 0.66 0 1 C-2.04071515 1.33910994 -4.08262621 1.67102704 -6.125 2 C-7.83042969 2.2784375 -7.83042969 2.2784375 -9.5703125 2.5625 C-12.80766642 2.97546542 -15.748074 3.30162792 -19 3 C-19.66 2.01 -20.32 1.02 -21 0 C-14.04907366 -1.79378744 -6.9975717 -1.19107603 0 0 Z " fill="#CCDBCC" transform="translate(519,457)"/>
<path d="M0 0 C0.66 0.33 1.32 0.66 2 1 C1.67 1.66 1.34 2.32 1 3 C1.66 3.33 2.32 3.66 3 4 C-0.88717131 6.68399924 -4.72121973 8.96248559 -9 11 C-6.92623208 6.33402219 -4.25832657 2.83888438 0 0 Z " fill="#EEF4EE" transform="translate(812,265)"/>
<path d="M0 0 C0.66 0.33 1.32 0.66 2 1 C2 4 2 4 1 6 C-0.1446875 5.9690625 -0.1446875 5.9690625 -1.3125 5.9375 C-4.10185786 5.87057159 -4.10185786 5.87057159 -7 7 C-7.33 7.66 -7.66 8.32 -8 9 C-8.66 8.34 -9.32 7.68 -10 7 C-6.7 4.69 -3.4 2.38 0 0 Z " fill="#EBF4EB" transform="translate(190,40)"/>
<path d="M0 0 C-4.75 3 -4.75 3 -7 3 C-7.28875 3.639375 -7.5775 4.27875 -7.875 4.9375 C-9 7 -9 7 -11 8 C-11.33 6.68 -11.66 5.36 -12 4 C-10.56988027 3.13353333 -9.13059381 2.28218171 -7.6875 1.4375 C-6.48673828 0.72400391 -6.48673828 0.72400391 -5.26171875 -0.00390625 C-3 -1 -3 -1 0 0 Z " fill="#EBF3E9" transform="translate(40,292)"/>
<path d="M0 0 C4.95 0 9.9 0 15 0 C14.67 0.66 14.34 1.32 14 2 C8.98537403 2.93493027 5.02721527 3.13112344 0 2 C0 1.34 0 0.68 0 0 Z " fill="#EAF0E5" transform="translate(560,449)"/>
<path d="M0 0 C0.66 0.33 1.32 0.66 2 1 C0.60667426 4.36720387 -0.9789286 5.9859524 -4 8 C-4.33 6.02 -4.66 4.04 -5 2 C-2.625 0.9375 -2.625 0.9375 0 0 Z " fill="#F1F4F0" transform="translate(336,371)"/>
<path d="M0 0 C0.66 0 1.32 0 2 0 C2 0.66 2 1.32 2 2 C3.98 2 5.96 2 8 2 C8.33 2.99 8.66 3.98 9 5 C6.36 5 3.72 5 1 5 C0.67 3.35 0.34 1.7 0 0 Z " fill="#F2F9ED" transform="translate(352,15)"/>
<path d="M0 0 C0.66 1.32 1.32 2.64 2 4 C1.01 4.33 0.02 4.66 -1 5 C-2.20882096 7.00016466 -2.20882096 7.00016466 -3 9 C-3.99 9 -4.98 9 -6 9 C-6 6 -6 6 -3.5625 3.375 C-2.716875 2.59125 -1.87125 1.8075 -1 1 C-0.67 0.67 -0.34 0.34 0 0 Z " fill="#EBF1EB" transform="translate(184,195)"/>
<path d="M0 0 C0.33 0.66 0.66 1.32 1 2 C-0.65 2.33 -2.3 2.66 -4 3 C-3.67 3.66 -3.34 4.32 -3 5 C-6.68266103 4.40049704 -10.34543185 3.75241109 -14 3 C-14 2.67 -14 2.34 -14 2 C-7.07 1.01 -7.07 1.01 0 0 Z " fill="#CADCCD" transform="translate(439,464)"/>
<path d="M0 0 C0.99 1.32 1.98 2.64 3 4 C2.01 4.33 1.02 4.66 0 5 C-0.33 5.33 -0.66 5.66 -1 6 C-2.32520503 6.68268138 -3.65812182 7.3507041 -5 8 C-3.8141763 4.62496331 -2.72426311 2.35277269 0 0 Z " fill="#E8EEE9" transform="translate(237,128)"/>
<path d="M0 0 C-3.21182149 1.90608098 -5.53882603 2.22266247 -9.25 2.125 C-10.14203125 2.10695313 -11.0340625 2.08890625 -11.953125 2.0703125 C-12.96632813 2.03550781 -12.96632813 2.03550781 -14 2 C-14 1.67 -14 1.34 -14 1 C-8.83430559 -0.79217969 -5.48946087 -1.12029814 0 0 Z " fill="#F4FAF4" transform="translate(504,458)"/>
<path d="M0 0 C3 1 3 1 4.203125 2.77734375 C4.54859375 3.49019531 4.8940625 4.20304687 5.25 4.9375 C5.78367187 6.00291016 5.78367187 6.00291016 6.328125 7.08984375 C6.54984375 7.72019531 6.7715625 8.35054687 7 9 C6.67 9.66 6.34 10.32 6 11 C4.9944239 9.54550599 3.99569565 8.08627557 3 6.625 C2.443125 5.81289063 1.88625 5.00078125 1.3125 4.1640625 C0 2 0 2 0 0 Z " fill="#E4F1E1" transform="translate(342,22)"/>
<path d="M0 0 C0.99 0.33 1.98 0.66 3 1 C1.35 2.65 -0.3 4.3 -2 6 C-2.66 5.34 -3.32 4.68 -4 4 C-2.68 2.68 -1.36 1.36 0 0 Z " fill="#F6F6F6" transform="translate(877,268)"/>
<path d="M0 0 C2.97 0.495 2.97 0.495 6 1 C4 3 4 3 0.875 3.125 C-0.548125 3.063125 -0.548125 3.063125 -2 3 C-1.34 2.01 -0.68 1.02 0 0 Z " fill="#E3F5E4" transform="translate(426,467)"/>
</svg>
